<svg xmlns="http://www.w3.org/2000/svg" viewBox="0 0 200 32" role="img" aria-label="BoldRoutes">
  <path d="M4 24V8h5c3.5 0 6 2 6 5s-2.5 5-6 5H8v6H4zm3.5-10h1.2c1.5 0 2.5-.8 2.5-2s-1-2-2.5-2H7.5v4zm0 7h1.6c1.8 0 3-1 3-2.5S11 15 9.1 15H7.5v6z" fill="currentColor"/>
  <path d="M22 24V8h3.5v10l6-10h4l-7 9L36 24h-4l-4.5-7L25 24h-3z" fill="currentColor"/>
  <path d="M40 24V8h8c4 0 7 2.5 7 6.5S52 21 48 21h-5v3H40zm3.5-9h4c2 0 3.2-1.2 3.2-2.8S49.5 10 47.5 10h-4v5z" fill="currentColor"/>
  <path d="M60 24V8h3.5v14h9v2H60z" fill="currentColor"/>
  <path d="M76 24l7-16h4l7 16h-4l-1.2-3.5H81L79.8 24H76zm6-12l-3 8h6l-3-8z" fill="currentColor"/>
  <path d="M96 24V8h5c4.5 0 7.5 2.8 7.5 7v2c0 4.2-3 7-7.5 7H96zm3.5-3h1.5c2.5 0 4-1.5 4-4v-2c0-2.5-1.5-4-4-4h-1.5v10z" fill="currentColor"/>
  <path d="M114 24V8h3.5v14h9v2h-12.5z" fill="currentColor"/>
  <path d="M130 24V8h8c4 0 7 2.5 7 6.5S142 21 138 21h-5v3h-3zm3.5-9h4c2 0 3.2-1.2 3.2-2.8S139.5 10 137.5 10h-4v5z" fill="currentColor"/>
  <path d="M150 24l7-16h4l7 16h-4l-1.2-3.5H155L153.8 24H150zm6-12l-3 8h6l-3-8z" fill="currentColor"/>
  <path d="M170 24V8h3.5v14h9v2H170z" fill="currentColor"/>
  <path d="M186 24V8h8c4 0 7 2.5 7 6.5S198 21 194 21h-5v3h-3zm3.5-9h4c2 0 3.2-1.2 3.2-2.8S195.5 10 193.5 10h-4v5z" fill="currentColor"/>
  <rect x="4" y="28" width="36" height="2" fill="#C9A961"/>
</svg>
