<svg xmlns="http://www.w3.org/2000/svg" viewBox="0 0 280 48" role="img" aria-label="BoldRoutes">
  <path d="M8 36V12h6c4.5 0 7.5 2.5 7.5 6.5S18.5 25 14 25h-2v11H8zm4-15h1.5c1.8 0 3-1 3-2.5S15.3 16 13.5 16H12v5zm0 9h2c2.2 0 3.5-1.2 3.5-3S16.2 22 14 22h-2v3z" fill="currentColor"/>
  <path d="M28 36V12h4v9.5l7-9.5h5l-8 10.5L45 36h-4.5l-5.5-8.5L33 36h-5z" fill="currentColor"/>
  <path d="M52 36V12h10c5 0 8.5 3.2 8.5 8.5S67 29 62 29h-6v7H52zm4-11h5c2.5 0 4-1.5 4-3.5S63.5 18 61 18h-5v7z" fill="currentColor"/>
  <path d="M76 36V12h4v20h12v4H76z" fill="currentColor"/>
  <path d="M98 36l9-24h5l9 24h-5l-1.5-4.5h-10L103 36h-5zm7.5-18l-3.5 10h7l-3.5-10z" fill="currentColor"/>
  <path d="M128 36V12h6c5.5 0 9 3.5 9 8.5v7c0 5-3.5 8.5-9 8.5h-6zm4-4h2c3 0 5-2 5-5v-7c0-3-2-5-5-5h-2v17z" fill="currentColor"/>
  <path d="M152 36V12h4v20h12v4h-16z" fill="currentColor"/>
  <path d="M174 36V12h10c5 0 8.5 3.2 8.5 8.5S189 29 184 29h-6v7h-4zm4-11h5c2.5 0 4-1.5 4-3.5S185.5 18 183 18h-5v7z" fill="currentColor"/>
  <path d="M198 36l9-24h5l9 24h-5l-1.5-4.5h-10L203 36h-5zm7.5-18l-3.5 10h7l-3.5-10z" fill="currentColor"/>
  <path d="M228 36V12h4v20h12v4h-16z" fill="currentColor"/>
  <path d="M250 36V12h10c5 0 8.5 3.2 8.5 8.5S265 29 260 29h-6v7h-4zm4-11h5c2.5 0 4-1.5 4-3.5S261.5 18 259 18h-5v7z" fill="currentColor"/>
  <rect x="8" y="42" width="48" height="2" fill="#C9A961"/>
</svg>
