<svg width="96" height="96" viewBox="0 0 96 96" fill="none" xmlns="http://www.w3.org/2000/svg"><path d="M24.4359 47.6572C26.529 47.7549 29.4447 48.1703 30.813 49.8562C30.946 49.9836 31.0402 50.146 31.0849 50.3247C31.1295 50.5034 31.1228 50.6911 31.0655 50.8661C30.6501 51.876 29.4366 52.438 28.5163 52.8452C27.4832 53.2958 26.3822 53.5711 25.2585 53.6596C24.5843 53.7288 23.9048 53.7288 23.2306 53.6596C22.9201 53.6755 22.6098 53.6248 22.3204 53.5111C22.0311 53.3973 21.7694 53.223 21.5528 52.9999C21.425 52.761 21.3636 52.4921 21.3751 52.2214C21.3866 51.9506 21.4704 51.6879 21.618 51.4606C21.8031 51.0449 22.021 50.6446 22.2695 50.2634C22.8283 49.3617 23.4516 48.5015 24.1346 47.6898H24.4197M33.3785 48.7648C32.9691 48.0992 32.4354 47.5185 31.8066 47.0545C31.2184 46.6162 30.5748 46.2574 29.8927 45.9876C32.165 45.5722 34.421 45.0754 36.6199 44.5135C42.2721 43.0638 47.8429 41.1173 52.7051 37.8106C54.448 36.6216 56.1828 35.1637 56.7773 33.1358C56.9829 32.4074 57.0289 31.6433 56.9122 30.8956C56.7956 30.1478 56.519 29.4341 56.1013 28.803C54.9937 27.1741 53.0635 26.5958 51.2717 26.0827C46.4421 24.6819 41.0749 24.9181 36.1068 25.2683C33.8753 25.4149 31.6193 25.6348 29.4203 25.928C27.19 26.235 24.9792 26.6701 22.7989 27.2311C18.4877 28.2594 14.4038 30.0763 10.7534 32.5901C8.96743 33.8079 7.39824 35.3166 6.11107 37.0532C4.82587 38.8024 4.09145 40.8951 4.00168 43.0638C3.96474 44.8492 4.5395 46.5936 5.63055 48.0074C6.502 49.1069 8.07388 50.9964 9.62131 50.9231C9.99185 50.892 10.3396 50.7312 10.6032 50.469C10.8669 50.2068 11.0297 49.8601 11.0629 49.4897C11.1117 48.5124 10.2484 48.1377 9.60502 47.6653C8.75006 47.1196 8.06988 46.3398 7.64539 45.4186C7.2209 44.4974 7.06997 43.4737 7.21057 42.4692C7.34961 41.4171 7.70452 40.4051 8.25305 39.4965C8.83599 38.5081 9.55116 37.6039 10.3787 36.8089C12.0145 35.2507 13.8727 33.9442 15.8925 32.9322C17.9419 31.9011 20.0855 31.0693 22.294 30.4481C26.5509 29.2604 30.9166 28.5046 35.325 28.1921C39.6029 27.7696 43.9152 27.8407 48.1768 28.4039C49.4741 28.606 50.7409 28.9699 51.9477 29.4871C52.9902 29.9269 54.1385 30.6354 53.8698 31.9304C53.6484 32.7148 53.1939 33.4135 52.5666 33.9339C48.6573 37.7536 43.0296 39.8956 37.8416 41.3372C34.657 42.2115 31.4234 42.8968 28.1579 43.3895C28.8828 42.7136 29.6158 42.0539 30.3569 41.4186L33.3133 38.8938C33.46 38.7891 33.584 38.6557 33.6778 38.5017C33.7716 38.3477 33.8332 38.1764 33.859 37.998C33.9017 37.655 33.827 37.3077 33.6472 37.0125C33.4761 36.7178 33.2169 36.4843 32.9061 36.3447C32.732 36.2719 32.5451 36.2344 32.3564 36.2344C32.1676 36.2344 31.9807 36.2719 31.8066 36.3447C31.092 36.6396 30.4542 37.0936 29.9415 37.6722C29.4522 38.2114 28.9329 38.7226 28.386 39.2033C27.4955 40.0123 26.6186 40.8268 25.7553 41.6466C24.9409 42.4204 24.1265 43.2755 23.312 44.09L21.2271 44.2773C20.4126 44.3587 19.5982 44.4239 18.7837 44.4809C18.0628 44.436 17.3487 44.6433 16.7639 45.0673C16.5525 45.2449 16.407 45.4885 16.3509 45.7589C16.2947 46.0292 16.3312 46.3106 16.4544 46.5577C16.6016 46.8701 16.8309 47.1367 17.1178 47.3289C17.4047 47.5211 17.7384 47.6318 18.0833 47.6491C18.4351 47.6897 18.7903 47.6897 19.1421 47.6491C19.5657 47.6459 19.9881 47.605 20.4045 47.5269C20.1276 47.8934 19.8588 48.2843 19.59 48.6997C19.1965 49.2838 18.8739 49.9126 18.629 50.5729C18.3864 51.2032 18.2488 51.869 18.2218 52.5438C18.1903 53.2375 18.3691 53.9245 18.7349 54.5148C19.0079 55.0063 19.4035 55.4187 19.8832 55.712C20.3388 55.9817 20.8294 56.1872 21.3411 56.3228C21.8549 56.4609 22.3817 56.5455 22.9129 56.5753H23.7274H24.4848C25.24 56.54 25.993 56.4667 26.7408 56.3554C27.5198 56.2316 28.2877 56.0464 29.0375 55.8016C29.7916 55.5481 30.5154 55.2122 31.1958 54.7998C31.8743 54.3864 32.482 53.8667 32.9957 53.2605C33.5799 52.6046 33.932 51.7746 33.9974 50.8987C34.0086 50.152 33.8142 49.4166 33.4355 48.773" fill="white"></path><path d="M92.3355 67.7986C92.2382 67.5214 92.0593 67.2801 91.8224 67.1064C91.0813 66.5281 90.1366 66.8132 89.3303 67.1064C88.3856 67.4095 87.4106 67.6089 86.4227 67.7009C83.1707 67.9541 79.9049 67.9786 76.6494 67.7742C73.0333 67.6357 69.4009 67.4077 65.85 67.1064C62.7063 66.8457 59.5137 66.5281 56.3374 66.1616C60.9566 64.4587 65.2223 61.9186 68.9204 58.6688C71.4499 56.527 73.2066 53.6143 73.9211 50.3778C74.4993 47.12 73.465 43.5121 70.8425 41.5167C68.668 39.8878 65.7767 39.5213 63.0402 39.562C54.9691 39.6679 46.5967 42.6325 40.7083 48.2602C37.6155 51.1913 35.3655 54.8981 34.1928 58.9945C34.038 59.5321 33.9077 60.0777 33.8018 60.6234C33.6574 61.2009 33.6215 61.8002 33.696 62.3907C33.7387 62.6864 33.8531 62.967 34.0291 63.2084C34.2051 63.4497 34.4374 63.6443 34.7059 63.7753C35.1754 63.8993 35.6746 63.8394 36.1014 63.6078C36.5283 63.3762 36.8506 62.9904 37.0026 62.5292C37.2192 61.8649 37.275 61.1587 37.1655 60.4687C37.1283 59.8857 37.2201 59.3018 37.4342 58.7584C37.9708 56.8473 38.8421 55.0466 40.0079 53.4401C41.2373 51.933 42.6304 50.5672 44.1615 49.3679C47.205 46.9294 50.6809 45.0864 54.4071 43.9356C57.6436 42.926 61.0288 42.477 64.4166 42.608C66.3631 42.6976 68.4888 43.0397 69.8163 44.4324C70.4216 45.1164 70.8537 45.9358 71.0762 46.8216C71.2988 47.7074 71.3052 48.6338 71.095 49.5226C70.6624 51.2988 69.8263 52.9514 68.6517 54.3522C65.4846 58.2364 61.3495 61.217 56.6631 62.9934C54.9272 63.6988 53.1448 64.2838 51.3286 64.7445C50.1558 65.0377 47.5903 65.0132 47.517 66.6991C47.46 67.9289 48.5839 68.1977 49.5287 68.328C52.2489 68.6619 55.0017 68.9877 57.673 69.2809C60.3444 69.5741 63.1298 69.8429 65.8989 70.0953C68.668 70.3478 71.38 70.5026 74.0921 70.6492C76.0305 70.7469 77.9851 70.7958 79.9398 70.7958C80.7542 70.7958 81.5117 70.7958 82.2935 70.7958C83.7839 70.7958 85.3477 70.7143 86.944 70.6247C88.4288 70.5695 89.8937 70.2639 91.2768 69.7207C91.6472 69.5776 91.9527 69.3042 92.1356 68.9517C92.3186 68.5992 92.3665 68.1921 92.2704 67.8068" fill="white"></path><path d="M50.8478 60.2079C51.8414 59.2142 52.892 58.2125 53.9671 57.2433C55.0203 56.2829 56.127 55.3829 57.2818 54.5475C57.5248 54.3781 57.7074 54.1356 57.8031 53.8552C57.8945 53.5941 57.9224 53.3149 57.8845 53.0408C57.8466 52.7708 57.7338 52.5169 57.5588 52.3078C57.3724 52.0916 57.1342 51.9263 56.8665 51.8273C56.619 51.7391 56.3524 51.719 56.0945 51.7691C55.8366 51.8193 55.5969 51.9378 55.4005 52.1123L54.415 52.9268C51.0124 55.636 47.886 58.6751 45.0816 61.9996L44.373 62.9037C44.0065 63.3679 43.6074 63.9217 43.1921 64.5325C42.7767 65.1434 42.3776 65.8519 41.946 66.5523C41.5777 67.189 41.2722 67.86 41.0338 68.5559C40.8414 69.0771 40.8046 69.643 40.9279 70.1847C41.0338 70.5512 41.3596 70.9992 42.3043 70.9992C42.622 71.0112 42.9337 70.9102 43.1839 70.7141C43.3972 70.5378 43.5672 70.3149 43.6807 70.0626C43.7874 69.8253 43.8667 69.5767 43.9169 69.3214C43.9543 69.1261 44.0116 68.935 44.0879 68.7513C44.284 68.3332 44.5015 67.9254 44.7395 67.5297C44.9757 67.1387 45.2444 66.7152 45.5539 66.3324C46.3226 65.2216 47.1575 64.1582 48.0542 63.148C48.9583 62.1299 49.903 61.1282 50.8722 60.159" fill="white"></path><path d="M83.6782 62.2276C83.8348 62.399 84.0264 62.5349 84.2399 62.6262C84.4534 62.7175 84.6839 62.7621 84.9161 62.757C85.1481 62.7802 85.3821 62.7411 85.594 62.6437C85.8059 62.5464 85.9879 62.3943 86.1215 62.2032C86.3324 61.863 86.4106 61.4571 86.3414 61.0629C86.264 60.6471 86.0591 60.2656 85.755 59.9716C85.597 59.8057 85.4058 59.675 85.1939 59.5879C84.982 59.5009 84.7541 59.4596 84.5252 59.4666C84.2865 59.44 84.045 59.479 83.8269 59.5795C83.6087 59.6799 83.4221 59.838 83.2872 60.0368C83.0954 60.3721 83.029 60.7646 83.0999 61.1444C83.1796 61.5553 83.381 61.9328 83.6782 62.2276Z" fill="white"></path></svg>