<svg viewBox="0 0 425 56" fill="none" xmlns="http://www.w3.org/2000/svg"><path d="M162.43 27.2152C165 27.3353 168.58 27.8459 170.26 29.9184C170.423 30.0751 170.539 30.2747 170.594 30.4944C170.649 30.714 170.64 30.9447 170.57 31.1599C170.06 32.4013 168.57 33.0922 167.44 33.5927C166.171 34.1468 164.82 34.4851 163.44 34.5939C162.612 34.679 161.778 34.679 160.95 34.5939C160.569 34.6135 160.188 34.5513 159.832 34.4114C159.477 34.2716 159.156 34.0573 158.89 33.783C158.733 33.4893 158.658 33.1587 158.672 32.8259C158.686 32.4931 158.789 32.1702 158.97 31.8907C159.197 31.3797 159.465 30.8876 159.77 30.419C160.456 29.3106 161.221 28.2532 162.06 27.2552H162.41M173.41 28.5768C172.907 27.7585 172.252 27.0448 171.48 26.4743C170.758 25.9355 169.968 25.4944 169.13 25.1627C171.92 24.6521 174.69 24.0414 177.39 23.3506C184.33 21.5685 191.17 19.1756 197.14 15.1108C199.28 13.6491 201.41 11.8569 202.14 9.36398C202.392 8.46869 202.449 7.52936 202.306 6.61016C202.162 5.69096 201.823 4.81351 201.31 4.0377C199.95 2.03532 197.58 1.32447 195.38 0.693725C189.45 -1.02832 182.86 -0.737971 176.76 -0.30746C174.02 -0.127246 171.25 0.143075 168.55 0.503499C165.812 0.880907 163.097 1.41576 160.42 2.1054C155.126 3.36953 150.112 5.60304 145.63 8.69322C143.437 10.1904 141.51 12.0449 139.93 14.1797C138.352 16.33 137.45 18.9025 137.34 21.5685C137.295 23.7634 138 25.9077 139.34 27.6457C140.41 28.9973 142.34 31.32 144.24 31.2299C144.695 31.1918 145.122 30.9941 145.446 30.6718C145.769 30.3495 145.969 29.9232 146.01 29.4678C146.07 28.2664 145.01 27.8059 144.22 27.2252C143.17 26.5544 142.335 25.5958 141.814 24.4633C141.293 23.331 141.107 22.0725 141.28 20.8376C141.451 19.5443 141.886 18.3002 142.56 17.1833C143.276 15.9682 144.154 14.8566 145.17 13.8793C147.178 11.9639 149.46 10.3578 151.94 9.11372C154.456 7.84631 157.088 6.82373 159.8 6.0601C165.027 4.60004 170.387 3.67092 175.8 3.2868C181.053 2.76745 186.347 2.85479 191.58 3.54711C193.173 3.79554 194.728 4.24289 196.21 4.87869C197.49 5.41934 198.9 6.29037 198.57 7.88226C198.298 8.84655 197.74 9.70539 196.97 10.3451C192.17 15.0407 185.26 17.6738 178.89 19.4459C174.98 20.5207 171.009 21.3632 167 21.9689C167.89 21.138 168.79 20.327 169.7 19.5461L173.33 16.4424C173.51 16.3136 173.662 16.1496 173.777 15.9604C173.893 15.7711 173.968 15.5604 174 15.3411C174.052 14.9195 173.961 14.4926 173.74 14.1296C173.53 13.7675 173.212 13.4804 172.83 13.3087C172.616 13.2193 172.387 13.1731 172.155 13.1731C171.923 13.1731 171.694 13.2193 171.48 13.3087C170.603 13.6712 169.819 14.2294 169.19 14.9406C168.589 15.6035 167.951 16.2319 167.28 16.8228C166.187 17.8174 165.11 18.8186 164.05 19.8264C163.05 20.7775 162.05 21.8288 161.05 22.83L158.49 23.0602C157.49 23.1604 156.49 23.2405 155.49 23.3105C154.605 23.2554 153.728 23.5102 153.01 24.0314C152.75 24.2498 152.572 24.5492 152.503 24.8816C152.434 25.2139 152.479 25.5598 152.63 25.8636C152.811 26.2476 153.092 26.5754 153.444 26.8117C153.797 27.048 154.206 27.184 154.63 27.2052C155.062 27.2552 155.498 27.2552 155.93 27.2052C156.45 27.2014 156.969 27.1511 157.48 27.055C157.14 27.5055 156.81 27.9861 156.48 28.4967C155.997 29.2148 155.601 29.9878 155.3 30.7994C155.002 31.5742 154.833 32.3928 154.8 33.2223C154.761 34.0751 154.981 34.9196 155.43 35.6452C155.765 36.2494 156.251 36.7564 156.84 37.1169C157.399 37.4484 158.002 37.7011 158.63 37.8678C159.261 38.0376 159.908 38.1416 160.56 38.1782H161.56H162.49C163.417 38.1349 164.342 38.0446 165.26 37.9079C166.216 37.7557 167.159 37.528 168.08 37.2271C169.006 36.9155 169.895 36.5025 170.73 35.9956C171.563 35.4874 172.309 34.8485 172.94 34.1034C173.657 33.2971 174.09 32.2768 174.17 31.1999C174.184 30.282 173.945 29.378 173.48 28.5868" fill="white"></path><path d="M245.8 51.9748C245.68 51.6341 245.461 51.3374 245.17 51.1238C244.26 50.4129 243.1 50.7633 242.11 51.1238C240.95 51.4965 239.753 51.7416 238.54 51.8546C234.547 52.166 230.537 52.196 226.54 51.9447C222.1 51.7745 217.64 51.4942 213.28 51.1238C209.42 50.8034 205.5 50.4129 201.6 49.9624C207.272 47.869 212.509 44.7465 217.05 40.7514C220.156 38.1185 222.313 34.5381 223.19 30.5593C223.9 26.5546 222.63 22.1193 219.41 19.6664C216.74 17.664 213.19 17.2135 209.83 17.2636C199.92 17.3937 189.64 21.038 182.41 27.9562C178.612 31.5593 175.85 36.1162 174.41 41.1519C174.22 41.8127 174.06 42.4835 173.93 43.1543C173.752 43.8642 173.708 44.6009 173.8 45.3269C173.852 45.6903 173.993 46.0353 174.209 46.332C174.425 46.6286 174.71 46.8679 175.04 47.0289C175.616 47.1814 176.229 47.1078 176.753 46.8231C177.277 46.5383 177.673 46.064 177.86 45.4971C178.126 44.6805 178.194 43.8124 178.06 42.9641C178.014 42.2475 178.127 41.5297 178.39 40.8616C179.049 38.5124 180.118 36.2988 181.55 34.3238C183.059 32.4712 184.77 30.7922 186.65 29.3179C190.387 26.3202 194.655 24.0547 199.23 22.6399C203.204 21.3989 207.36 20.847 211.52 21.008C213.91 21.1181 216.52 21.5386 218.15 23.2507C218.893 24.0916 219.424 25.0989 219.697 26.1877C219.97 27.2767 219.978 28.4155 219.72 29.5081C219.189 31.6916 218.162 33.7232 216.72 35.4451C212.831 40.22 207.754 43.8841 202 46.0678C199.868 46.9349 197.68 47.654 195.45 48.2203C194.01 48.5807 190.86 48.5507 190.77 50.6232C190.7 52.135 192.08 52.4654 193.24 52.6255C196.58 53.036 199.96 53.4365 203.24 53.7969C206.52 54.1574 209.94 54.4878 213.34 54.7981C216.74 55.1085 220.07 55.2987 223.4 55.4789C225.78 55.5991 228.18 55.6591 230.58 55.6591C231.58 55.6591 232.51 55.6591 233.47 55.6591C235.3 55.6591 237.22 55.559 239.18 55.4489C241.003 55.381 242.802 55.0054 244.5 54.3376C244.955 54.1618 245.33 53.8256 245.554 53.3923C245.779 52.959 245.838 52.4584 245.72 51.9848" fill="white"></path><path d="M194.86 42.6436C196.08 41.4222 197.37 40.1907 198.69 38.9993C199.983 37.8187 201.342 36.7123 202.76 35.6854C203.058 35.477 203.283 35.179 203.4 34.8343C203.512 34.5133 203.547 34.1701 203.5 33.8332C203.454 33.5013 203.315 33.1891 203.1 32.9321C202.871 32.6663 202.579 32.463 202.25 32.3414C201.946 32.233 201.619 32.2082 201.302 32.2699C200.985 32.3316 200.691 32.4772 200.45 32.6918L199.24 33.693C195.062 37.0233 191.223 40.7593 187.78 44.8462L186.91 45.9576C186.46 46.5282 185.97 47.209 185.46 47.9599C184.95 48.7108 184.46 49.5819 183.93 50.4429C183.478 51.2255 183.103 52.0504 182.81 52.9058C182.574 53.5466 182.529 54.2422 182.68 54.9082C182.81 55.3587 183.21 55.9094 184.37 55.9094C184.76 55.9241 185.143 55.7999 185.45 55.5589C185.712 55.3422 185.921 55.0682 186.06 54.758C186.191 54.4664 186.288 54.1607 186.35 53.8469C186.396 53.6067 186.466 53.3719 186.56 53.1461C186.801 52.6321 187.068 52.1308 187.36 51.6443C187.65 51.1637 187.98 50.6431 188.36 50.1726C189.304 48.807 190.329 47.4998 191.43 46.2579C192.54 45.0064 193.7 43.775 194.89 42.5835" fill="white"></path><path d="M235.17 45.1266C235.363 45.3373 235.598 45.5044 235.86 45.6166C236.122 45.7288 236.405 45.7837 236.69 45.7774C236.975 45.8059 237.262 45.7579 237.523 45.6382C237.783 45.5185 238.006 45.3316 238.17 45.0966C238.429 44.6785 238.525 44.1795 238.44 43.6949C238.345 43.1837 238.094 42.7148 237.72 42.3533C237.526 42.1494 237.292 41.9887 237.031 41.8817C236.771 41.7747 236.491 41.724 236.21 41.7326C235.917 41.6999 235.621 41.7478 235.353 41.8713C235.085 41.9948 234.856 42.1891 234.69 42.4334C234.455 42.8456 234.373 43.3282 234.46 43.7951C234.558 44.3002 234.805 44.7642 235.17 45.1266Z" fill="white"></path><path d="M3.25 29.0675H9.47C10.8403 28.9796 12.2073 29.2852 13.41 29.9485C13.8093 30.2058 14.1328 30.5651 14.3472 30.9892C14.5617 31.4133 14.6593 31.8869 14.63 32.3614C14.6553 32.8402 14.5584 33.3175 14.3485 33.7484C14.1385 34.1793 13.8224 34.5496 13.43 34.8243C12.3745 35.4928 11.137 35.8148 9.89 35.7454H3.25V29.0675ZM12.25 25.2029C11.2879 25.8362 10.1501 26.1481 9 26.0939H3.25V19.6463H9.25C10.3814 19.5666 11.5072 19.8659 12.45 20.4973C12.7817 20.7566 13.0458 21.0923 13.22 21.4758C13.3941 21.8593 13.473 22.2793 13.45 22.6999C13.4797 23.1829 13.3871 23.6655 13.1808 24.1031C12.9746 24.5406 12.6613 24.9189 12.27 25.2029M16.42 28.7571C15.9658 28.3081 15.4466 27.9301 14.88 27.6358C14.6 27.4856 14.31 27.3554 14.01 27.2253C14.14 27.1552 14.26 27.0651 14.39 26.985C14.824 26.6713 15.2141 26.301 15.55 25.8837C15.9133 25.4235 16.1972 24.9058 16.39 24.3519C16.6102 23.7079 16.7151 23.03 16.7 22.3495C16.7119 21.529 16.5339 20.7169 16.18 19.9767C15.8286 19.2548 15.3069 18.6294 14.66 18.1545C13.9669 17.6454 13.1878 17.2656 12.36 17.0332C11.4072 16.7626 10.4203 16.631 9.43 16.6427H0V38.6689H9.8C10.8968 38.6778 11.9898 38.5397 13.05 38.2584C13.9678 38.0133 14.8347 37.6064 15.61 37.057C16.3247 36.5366 16.9014 35.8492 17.29 35.0546C17.6902 34.2318 17.8923 33.3265 17.88 32.4114C17.8941 31.6904 17.7579 30.9743 17.48 30.3089C17.234 29.7194 16.8776 29.1825 16.43 28.7271" fill="white"></path><path d="M48.0003 27.6956C48.0122 28.8047 47.8119 29.9058 47.4103 30.9395C47.042 31.9121 46.4922 32.8057 45.7903 33.5726C44.6818 34.732 43.2461 35.5249 41.6753 35.8452C40.1044 36.1655 38.4734 35.9978 37.0003 35.3648C35.0881 34.5005 33.5958 32.9129 32.8503 30.9495C32.4536 29.9075 32.2535 28.8008 32.2603 27.6856C32.2542 26.5802 32.4543 25.4835 32.8503 24.4518C33.2224 23.481 33.7718 22.5881 34.4703 21.8187C35.5837 20.6696 37.0203 19.8875 38.5888 19.5762C40.1573 19.265 41.7833 19.4395 43.2503 20.0766C44.1935 20.5037 45.0457 21.1087 45.7603 21.8587C46.4732 22.6209 47.0303 23.5155 47.4003 24.4918C47.7976 25.5131 48.0011 26.5996 48.0003 27.6956ZM48.2703 19.6861C47.265 18.6358 46.0618 17.7953 44.7303 17.2132C43.278 16.6045 41.7143 16.3077 40.1403 16.3422C38.5649 16.3232 37.0036 16.6406 35.5603 17.2733C34.2193 17.8444 33.0081 18.6822 32.0003 19.7362C31.0191 20.7859 30.2455 22.0123 29.7203 23.3505C29.1783 24.731 28.9035 26.2022 28.9103 27.6856C28.904 29.1712 29.1754 30.645 29.7103 32.0308C30.225 33.3794 31.0036 34.6117 32.0003 35.6551C33.0045 36.702 34.2037 37.5421 35.5303 38.128C36.9739 38.7463 38.5303 39.0565 40.1003 39.0391C41.6757 39.0579 43.237 38.7406 44.6803 38.108C46.018 37.5181 47.2248 36.6672 48.2303 35.605C49.2161 34.5531 49.9932 33.3231 50.5203 31.9807C51.0633 30.5969 51.3382 29.1222 51.3303 27.6356C51.3355 26.1532 51.0642 24.683 50.5303 23.3004C50.0127 21.9607 49.242 20.7336 48.2603 19.6861" fill="white"></path><path d="M68.4307 16.6625H65.1807V38.6687H80.3107V35.605H68.4307V16.6625Z" fill="white"></path><path d="M107.18 27.6958C107.19 28.769 106.99 29.8337 106.59 30.8296C106.207 31.7844 105.63 32.6489 104.895 33.3678C104.16 34.0866 103.283 34.6441 102.32 35.0045C101.214 35.4178 100.041 35.6216 98.8596 35.6052H94.3396V19.7364H98.8596C100.042 19.7215 101.217 19.9321 102.32 20.3571C103.289 20.7175 104.171 21.2795 104.907 22.0061C105.643 22.7326 106.216 23.6072 106.59 24.5721C106.985 25.5658 107.185 26.6264 107.18 27.6958ZM107.26 19.8065C106.188 18.8025 104.932 18.0169 103.56 17.4937C102.058 16.9287 100.465 16.6469 98.8596 16.6627H91.0996V38.6889H98.8596C100.466 38.7039 102.061 38.4152 103.56 37.8379C104.932 37.3098 106.188 36.521 107.26 35.5151C108.297 34.5231 109.118 33.3264 109.67 32.001C110.804 29.2153 110.804 26.0961 109.67 23.3106C109.113 21.9938 108.293 20.8048 107.26 19.8165" fill="white"></path><path d="M275.73 25.1728C275.494 25.6538 275.153 26.0749 274.73 26.4042C274.255 26.7596 273.72 27.0275 273.15 27.1952C272.481 27.3896 271.787 27.4841 271.09 27.4755H265V19.7363H271.1C272.42 19.6494 273.731 20.0013 274.83 20.7375C275.249 21.0629 275.583 21.4854 275.802 21.9685C276.022 22.4516 276.12 22.981 276.09 23.5108C276.102 24.0833 275.975 24.6499 275.72 25.1628M275.65 29.2676C276.368 28.9198 277.023 28.4565 277.59 27.896C278.157 27.3274 278.597 26.6449 278.88 25.8936C279.192 25.0863 279.345 24.2261 279.33 23.3606C279.343 22.408 279.145 21.4643 278.75 20.5973C278.365 19.7697 277.802 19.0379 277.1 18.4548C276.348 17.8378 275.481 17.3751 274.55 17.0932C273.489 16.7605 272.382 16.5983 271.27 16.6126H261.76V38.6388H265V30.459H270.39L276.48 38.6287V38.6788H280.48L273.88 29.8984C274.476 29.7491 275.055 29.5412 275.61 29.2776" fill="white"></path><path d="M309 27.6958C309.007 28.8044 308.807 29.9046 308.41 30.9396C308.044 31.9135 307.494 32.8075 306.79 33.5727C305.682 34.7322 304.246 35.5252 302.675 35.8453C301.104 36.1656 299.473 35.998 298 35.3649C297.06 34.938 296.211 34.3327 295.5 33.5827C294.782 32.8224 294.221 31.9276 293.85 30.9496C293.453 29.9076 293.253 28.8009 293.26 27.6857C293.254 26.5804 293.454 25.4837 293.85 24.4519C294.222 23.4811 294.771 22.5883 295.47 21.8188C296.162 21.0684 297.003 20.4715 297.94 20.0667C298.937 19.6384 300.01 19.4175 301.095 19.4175C302.18 19.4175 303.253 19.6384 304.25 20.0667C305.193 20.4938 306.045 21.0989 306.76 21.8488C307.473 22.6111 308.03 23.5056 308.4 24.4819C308.794 25.5212 308.994 26.6241 308.99 27.7358M309.25 19.7263C308.25 18.6748 307.049 17.834 305.72 17.2534C304.28 16.635 302.727 16.3248 301.16 16.3423C299.585 16.3225 298.023 16.6399 296.58 17.2734C295.239 17.8575 294.031 18.7092 293.03 19.7764C292.035 20.81 291.245 22.0227 290.7 23.3506C290.155 24.7306 289.877 26.2017 289.88 27.6857C289.874 29.1714 290.145 30.6452 290.68 32.0309C291.197 33.3807 291.976 34.6142 292.974 35.6592C293.971 36.7043 295.167 37.5402 296.49 38.1181C297.934 38.7364 299.49 39.0467 301.06 39.0292C302.635 39.048 304.197 38.7307 305.64 38.0981C306.978 37.5082 308.185 36.6573 309.19 35.5951C311.214 33.424 312.324 30.5553 312.29 27.5856C312.295 26.1033 312.024 24.633 311.49 23.2505C310.973 21.9082 310.198 20.6803 309.21 19.6362" fill="white"></path><path d="M338.4 29.3576C338.479 30.2566 338.378 31.1623 338.103 32.0217C337.828 32.8812 337.385 33.6772 336.8 34.3636C336.226 34.917 335.545 35.3465 334.798 35.6255C334.052 35.9045 333.256 36.027 332.46 35.9855C331.643 36.0343 330.825 35.9078 330.061 35.6142C329.297 35.3207 328.605 34.867 328.03 34.2835C326.881 32.8793 326.312 31.0883 326.44 29.2775V16.6625H323.19V29.3576C323.166 30.7575 323.389 32.1506 323.85 33.4725C324.258 34.6002 324.906 35.6253 325.75 36.4761C326.572 37.3193 327.574 37.9661 328.68 38.3683C329.874 38.7923 331.133 39.0024 332.4 38.989C333.68 39.004 334.953 38.7939 336.16 38.3683C337.262 37.9718 338.263 37.3359 339.09 36.5061C339.943 35.633 340.595 34.584 341 33.4325C341.463 32.073 341.686 30.6434 341.66 29.2074V16.6625H338.4V29.3576Z" fill="white"></path><path d="M352.97 19.7362H360.06V38.6787H363.31V19.7362H370.4V16.6625H352.97V19.7362Z" fill="white"></path><path d="M384.52 29.0973H396.04V26.0637H384.52V19.7062H397.4V16.6625H381.27V38.6787H397.55V35.6351H384.52V29.0973Z" fill="white"></path><path d="M423 28.3564C421.398 27.2024 419.555 26.4286 417.61 26.0938C416.656 25.9081 415.717 25.6538 414.8 25.3329C414.215 25.1421 413.665 24.8581 413.17 24.4919C412.846 24.2566 412.59 23.9385 412.43 23.5708C412.284 23.1874 412.213 22.7795 412.22 22.3693C412.218 21.9632 412.31 21.5621 412.49 21.1979C412.677 20.8304 412.944 20.509 413.27 20.2568C413.659 19.9673 414.096 19.7471 414.56 19.6061C415.116 19.4303 415.697 19.3458 416.28 19.3558C417.302 19.3502 418.317 19.5231 419.28 19.8664C420.313 20.267 421.272 20.8353 422.12 21.5484L422.47 21.8387L424.38 19.2957L424.05 19.0354C423.001 18.1905 421.827 17.5149 420.57 17.033C419.217 16.5651 417.792 16.3382 416.36 16.3622C415.368 16.3564 414.382 16.512 413.44 16.8227C412.592 17.1088 411.802 17.5464 411.11 18.1143C410.443 18.6544 409.908 19.3383 409.542 20.1151C409.177 20.8918 408.991 21.7411 409 22.5996C408.983 23.4467 409.139 24.2884 409.46 25.0725C409.783 25.7953 410.269 26.4329 410.88 26.9348C411.586 27.4928 412.376 27.9355 413.22 28.2463C414.273 28.6312 415.353 28.939 416.45 29.1674C417.357 29.3601 418.252 29.6075 419.13 29.9083C419.686 30.0966 420.208 30.3701 420.68 30.7192C420.993 30.9529 421.241 31.2632 421.4 31.6203C421.547 31.9965 421.618 32.3979 421.61 32.8017C421.623 33.2451 421.529 33.6852 421.336 34.0843C421.143 34.4835 420.856 34.83 420.5 35.0944C419.576 35.7377 418.464 36.0547 417.34 35.9955C416.065 36.024 414.798 35.7854 413.62 35.2947C412.432 34.7529 411.34 34.019 410.39 33.1221L410.06 32.8217L408.06 35.2346L408.37 35.5149C409.577 36.629 410.977 37.5143 412.5 38.128C414.03 38.707 415.654 38.9957 417.29 38.9791C418.307 38.9865 419.32 38.8345 420.29 38.5285C421.172 38.263 421.994 37.8277 422.71 37.247C423.402 36.6724 423.957 35.9495 424.332 35.1315C424.708 34.3135 424.895 33.4216 424.88 32.5214C424.907 31.7292 424.751 30.9416 424.425 30.2195C424.099 29.4972 423.612 28.8597 423 28.3564Z" fill="white"></path></svg>